<svg width="51" height="50" viewBox="0 0 51 50" fill="none" xmlns="http://www.w3.org/2000/svg">
<path d="M23.9675 14.07C28.0926 12.5597 32.3558 10.9992 35.8994 10.3632C36.414 10.2712 36.9161 10.1959 37.4014 10.1457C38.2632 9.1918 39.4765 8.81945 40.2003 8.02036C38.8531 7.97434 37.3846 8.09148 35.8032 8.37598C32.0378 9.05374 27.6659 10.6519 23.4403 12.1999C16.671 14.6767 10.2741 17.1451 6.40838 15.5218C5.46286 15.1243 4.35417 14.6097 3.68896 12.7187C2.28741 8.71904 7.60492 3.50613 10.2114 2.6903C17.5789 0.389257 18.9135 8.12495 18.9135 8.12495C18.9135 8.12495 19.3319 7.92832 19.2524 6.47657C19.0976 3.68184 17.4032 -0.677592 10.6214 0.627729C6.56318 1.4059 0.254126 7.3677 1.70588 13.0408C2.20792 15.003 3.25804 16.4213 4.83112 17.2496C9.11525 19.5047 16.328 16.8647 23.9675 14.07Z" fill="url(#paint0_linear_526_270)"/>
<path d="M49.0728 0.933143C47.9181 -0.158808 46.3241 -0.43075 44.0775 0.870387C42.6717 1.68621 41.0443 3.16725 38.9942 5.30095C35.572 8.85711 7.87992 39.8041 0.888923 47.8828C-0.0817001 49.0041 -0.102619 49.6777 0.119119 49.8952C0.336672 50.1128 0.934944 50.0584 2.11057 49.0794C10.16 42.3645 41.0233 15.1034 44.9226 11.2251C46.663 9.49303 48.1357 7.92832 48.7632 7.17525C50.9095 4.61063 50.4409 2.2301 49.0728 0.933143ZM38.8687 13.4341C38.2788 14.024 37.5676 14.3629 37.0655 13.8608C36.5635 13.3588 36.6346 12.4635 37.2245 11.8694L44.6674 4.42655C45.2573 3.83664 46.1526 3.76552 46.6588 4.26757C47.1609 4.76961 46.9057 5.40136 46.3158 5.99126L38.8687 13.4341Z" fill="url(#paint1_linear_526_270)"/>
<path opacity="0.6" d="M40.2484 5.77423C42.5704 3.30165 44.2271 1.77041 45.6161 1.14703C48.1975 -0.0160427 49.44 1.32275 49.3187 1.19305C48.2142 0.000692112 46.6913 -0.539008 44.2606 0.77468C42.8172 1.55285 41.2232 2.9795 38.9891 5.30565C35.5752 8.866 7.77018 39.9008 0.883775 47.8876C-0.0826648 49.0088 -0.157972 49.7451 0.189277 49.9292C7.19701 41.909 36.8721 9.36804 40.2484 5.77423Z" fill="url(#paint2_linear_526_270)"/>
<path d="M47.6992 3.73217C46.624 3.06696 45.645 3.35564 44.62 4.37228C44.62 4.37228 44.6995 4.33044 44.8208 4.29279C45.4065 3.81166 46.2098 3.77401 46.6784 4.24259C47.1804 4.74463 46.9001 5.40148 46.3102 5.99138L38.8674 13.4342C38.2774 14.0241 37.5913 14.3379 37.0893 13.8359C36.5872 13.3338 36.6583 12.4385 37.2483 11.8444L37.4867 11.6059C37.4867 11.6059 34.9054 13.3087 36.5747 15.024C37.4574 15.9277 39.0347 15.4257 39.6664 14.773L47.6155 6.60639C48.2473 5.95791 48.7786 4.40157 47.6992 3.73217Z" fill="url(#paint3_linear_526_270)"/>
<path opacity="0.7" d="M40.5244 11.823C40.5244 11.823 41.5662 11.8314 41.9218 12.2749C42.2774 12.7184 42.0849 13.8814 42.1686 13.7978C42.2523 13.7141 44.2061 11.8816 44.7416 11.3461C45.2771 10.8106 44.0513 9.39648 44.0513 9.39648H42.9091L40.5244 11.823Z" fill="url(#paint4_radial_526_270)"/>
<path opacity="0.7" d="M19.2213 34.2228L23.3925 30.5662L17.6106 28.9932L14.1758 32.8631C16.4141 34.3985 19.2213 34.2228 19.2213 34.2228Z" fill="url(#paint5_radial_526_270)"/>
<path d="M46.449 10.2965C44.2944 8.0791 40.939 8.0791 40.939 8.0791L38.9769 10.0413C41.9097 9.89484 43.6417 10.5768 45.1688 12.0495C46.9301 13.7522 47.4489 16.4089 47.177 18.2832C45.7127 28.4329 32.0444 30.1273 31.9064 30.144C19.8196 31.5414 13.2512 26.5921 9.70756 21.6929C9.70756 21.6929 9.30174 24.404 11.8998 26.7594C15.2719 29.8135 20.0497 32.4618 27.9611 32.4618C29.3836 32.4618 30.8981 32.374 32.5047 32.1899C37.9602 31.5581 47.8254 28.458 49.2186 18.7685C49.5617 16.4256 48.9592 12.8778 46.449 10.2965Z" fill="url(#paint6_linear_526_270)"/>
<defs>
<linearGradient id="paint0_linear_526_270" x1="22.6742" y1="9.09491" x2="36.1658" y2="8.92676" gradientUnits="userSpaceOnUse">
<stop offset="0.5086" stop-color="#F06292"/>
<stop offset="1" stop-color="#C2185B" stop-opacity="0.9665"/>
</linearGradient>
<linearGradient id="paint1_linear_526_270" x1="-6.11505" y1="56.3192" x2="29.7121" y2="20.4921" gradientUnits="userSpaceOnUse">
<stop stop-color="#757575"/>
<stop offset="1" stop-color="#BDBDBD"/>
</linearGradient>
<linearGradient id="paint2_linear_526_270" x1="47.156" y1="0.0476329" x2="-6.14697" y2="56.9615" gradientUnits="userSpaceOnUse">
<stop stop-color="#FCE8B2"/>
<stop offset="1" stop-color="#FCE8B2" stop-opacity="0"/>
</linearGradient>
<linearGradient id="paint3_linear_526_270" x1="41.1253" y1="8.41848" x2="44.726" y2="11.7743" gradientUnits="userSpaceOnUse">
<stop stop-color="#455A64"/>
<stop offset="0.8375" stop-color="#455A64" stop-opacity="0"/>
</linearGradient>
<radialGradient id="paint4_radial_526_270" cx="0" cy="0" r="1" gradientUnits="userSpaceOnUse" gradientTransform="translate(41.6386 12.418) rotate(68.2167) scale(3.46628 2.33555)">
<stop offset="0.374" stop-color="#212121" stop-opacity="0"/>
<stop offset="1" stop-color="#212121"/>
</radialGradient>
<radialGradient id="paint5_radial_526_270" cx="0" cy="0" r="1" gradientUnits="userSpaceOnUse" gradientTransform="translate(16.9363 33.6231) rotate(9.31161) scale(7.76949 3.47447)">
<stop offset="0.475" stop-color="#212121" stop-opacity="0"/>
<stop offset="1" stop-color="#212121"/>
</radialGradient>
<linearGradient id="paint6_linear_526_270" x1="30.807" y1="22.5712" x2="26.5377" y2="11.9499" gradientUnits="userSpaceOnUse">
<stop offset="0.5086" stop-color="#F06292"/>
<stop offset="1" stop-color="#C2185B" stop-opacity="0.9665"/>
</linearGradient>
</defs>
</svg>
