<svg width="100" height="100" viewBox="0 0 100 100" fill="none" xmlns="http://www.w3.org/2000/svg">
<path opacity="0.993" fill-rule="evenodd" clip-rule="evenodd" d="M40.1043 7.81219C63.8849 4.73599 80.3781 14.111 89.5835 35.9372C95.5394 61.3511 86.6852 79.233 63.021 89.583C37.6071 95.539 19.7251 86.6848 9.37514 63.0205C3.5669 35.3924 13.8099 16.9897 40.1043 7.81219Z" fill="#76DDDA"/>
<path fill-rule="evenodd" clip-rule="evenodd" d="M41.1461 38.0212C37.6739 36.6323 36.6323 37.674 38.0211 41.1462C36.3783 43.7678 34.4686 43.7678 32.292 41.1462C29.2614 34.1175 31.5184 30.8189 39.0628 31.2503C43.3322 32.8931 44.0267 35.1501 41.1461 38.0212Z" fill="#51B2AF"/>
<path fill-rule="evenodd" clip-rule="evenodd" d="M60.9374 41.1455C61.8221 36.7239 60.4332 36.0294 56.7708 39.0621C55.2276 33.1309 57.6581 30.5267 64.0624 31.2496C68.7434 33.8194 69.4379 37.2916 66.1458 41.6663C64.991 42.3306 63.7757 42.8514 62.4999 43.2288C61.4271 42.8787 60.9063 42.1842 60.9374 41.1455Z" fill="#51B2AF"/>
<path fill-rule="evenodd" clip-rule="evenodd" d="M41.146 38.021C43.5546 41.124 46.3323 43.9018 49.4793 46.3543C52.2791 44.249 54.7096 41.8185 56.771 39.0626C60.4334 36.0299 61.8223 36.7244 60.9376 41.146C57.8346 43.5546 55.0568 46.3323 52.6043 49.4793C54.7096 52.2791 57.1401 54.7096 59.896 56.771C62.6738 61.6321 61.6321 62.6738 56.771 59.896C54.7096 57.1401 52.2791 54.7096 49.4793 52.6043C46.3323 55.0568 43.5546 57.8346 41.146 60.9376C36.7244 61.8223 36.0299 60.4334 39.0626 56.771C41.8185 54.7096 44.249 52.2791 46.3543 49.4793C43.9018 46.3323 41.124 43.5546 38.021 41.146C36.6321 37.6738 37.6738 36.6321 41.146 38.021Z" fill="#FCFCFD"/>
<path fill-rule="evenodd" clip-rule="evenodd" d="M39.0621 56.7712C36.0294 60.4336 36.7239 61.8226 41.1455 60.9379C43.5529 62.4598 43.5529 64.3696 41.1455 66.6671C33.6398 69.587 30.3413 66.9828 31.2496 58.8546C33.4055 55.8258 36.0096 55.1314 39.0621 56.7712Z" fill="#51B2AF"/>
<path fill-rule="evenodd" clip-rule="evenodd" d="M56.7707 59.896C61.6319 62.6738 62.6736 61.6322 59.8957 56.771C67.3311 55.7278 69.5879 58.8528 66.6666 66.146C59.207 69.9301 55.9085 67.8468 56.7707 59.896Z" fill="#51B2AF"/>
</svg>
