<svg width="150" height="150" viewBox="0 0 150 150" fill="none" xmlns="http://www.w3.org/2000/svg">
<rect width="150" height="150" rx="75" fill="#FFD8D8"/>
<path d="M75.0125 12.5C82.5375 12.5 89.75 13.8312 96.4313 16.2625L88.9625 23.725C77.6595 20.6515 65.6576 21.3989 54.8232 25.8509C43.9888 30.303 34.9291 38.2102 29.0527 48.343C23.1764 58.4758 20.8128 70.2663 22.3295 81.8811C23.8462 93.496 29.1582 104.284 37.4395 112.568C45.7208 120.852 56.5072 126.168 68.1216 127.689C79.7359 129.209 91.5272 126.849 101.662 120.977C111.797 115.104 119.707 106.046 124.163 95.2136C128.618 84.3807 129.37 72.3791 126.3 61.075L133.763 53.6125C136.259 60.4709 137.532 67.714 137.525 75.0125C137.525 109.537 109.537 137.525 75.0125 137.525C40.4875 137.525 12.5 109.537 12.5 75.0125C12.5 40.4875 40.4875 12.5 75.0125 12.5ZM75.0125 37.5125C78.1792 37.511 81.3334 37.91 84.4 38.7V48.4937C78.3859 46.366 71.8271 46.3461 65.8002 48.4373C59.7733 50.5284 54.6364 54.6063 51.2326 60.0017C47.8288 65.3972 46.3603 71.7895 47.0682 78.1294C47.7762 84.4694 50.6184 90.3803 55.1285 94.8921C59.6386 99.4038 65.5485 102.248 71.8882 102.958C78.2279 103.669 84.6208 102.203 90.0174 98.8007C95.414 95.3989 99.4939 90.2634 101.587 84.2373C103.681 78.2111 103.663 71.6524 101.537 65.6375H111.331C113.286 73.2101 112.825 81.2045 110.012 88.5018C107.199 95.7992 102.174 102.034 95.6416 106.335C89.1091 110.635 81.3955 112.785 73.5804 112.485C65.7652 112.184 58.2397 109.447 52.0569 104.658C45.8741 99.8684 41.3435 93.2656 39.0992 85.7736C36.8549 78.2816 37.0092 70.2754 39.5404 62.8755C42.0717 55.4755 46.8533 49.0522 53.216 44.5044C59.5787 39.9565 67.2041 37.5119 75.025 37.5125H75.0125ZM87.5125 75.0125C87.5116 77.6991 86.6452 80.314 85.0416 82.4695C83.438 84.6251 81.1825 86.2066 78.6096 86.9797C76.0366 87.7529 73.283 87.6764 70.7568 86.7617C68.2307 85.8471 66.0665 84.1429 64.5849 81.9017C63.1034 79.6605 62.3833 77.0016 62.5315 74.319C62.6797 71.6365 63.6882 69.0731 65.4076 67.0087C67.127 64.9443 69.4658 63.4888 72.0773 62.858C74.6888 62.2271 77.4341 62.4544 79.9062 63.5063L90.6562 52.7562L90.65 32.825C90.6511 31.5822 91.1457 30.3907 92.025 29.5125L107.65 13.8875C108.306 13.2328 109.14 12.787 110.049 12.6065C110.958 12.4259 111.9 12.5188 112.756 12.8732C113.612 13.2277 114.344 13.8278 114.859 14.5979C115.374 15.368 115.649 16.2735 115.65 17.2V34.3875H132.838C133.764 34.3883 134.669 34.6637 135.44 35.1788C136.21 35.6939 136.81 36.4257 137.164 37.2817C137.519 38.1377 137.612 39.0796 137.431 39.9883C137.25 40.8971 136.805 41.732 136.15 42.3875L120.525 58.0125C119.647 58.8918 118.455 59.3864 117.213 59.3875H97.275L86.525 70.1375C87.1625 71.6375 87.5125 73.2812 87.5125 75.0125ZM115.269 50.0125L121.519 43.7625H110.956C109.713 43.7625 108.521 43.2686 107.642 42.3896C106.763 41.5105 106.269 40.3182 106.269 39.075V28.5125L100.025 34.7625V49.6437C100.155 49.7613 100.278 49.8865 100.394 50.0188H115.269V50.0125Z" fill="#F2899C"/>
</svg>
