<svg width="150" height="150" viewBox="0 0 150 150" fill="none" xmlns="http://www.w3.org/2000/svg">
<rect width="150" height="150" rx="75" fill="#C9ECD6"/>
<path d="M127.676 86.0597V86.0353C127.324 85.0502 126.912 84.088 126.44 83.1545L106.157 37.0021C105.864 36.3375 105.45 35.7332 104.937 35.2199C103.304 33.587 101.366 32.2917 99.233 31.4079C97.1 30.5242 94.8137 30.0693 92.5049 30.0693C90.196 30.0693 87.9097 30.5242 85.7767 31.4079C83.6436 32.2917 81.7056 33.587 80.0732 35.2199C78.977 36.3173 78.3607 37.8045 78.3594 39.3556V49.6095H66.6406V39.3556C66.6405 37.8028 66.0241 36.3136 64.9267 35.215C63.2944 33.5821 61.3563 32.2868 59.2233 31.4031C57.0902 30.5193 54.804 30.0645 52.4951 30.0645C50.1862 30.0645 47.9 30.5193 45.7669 31.4031C43.6339 32.2868 41.6958 33.5821 40.0635 35.215C39.5496 35.7283 39.1357 36.3326 38.8428 36.9972L18.5596 83.1545C18.0881 84.088 17.6755 85.0502 17.3242 86.0353C17.3242 86.0353 17.3242 86.0353 17.3242 86.0597C16.0855 89.5468 15.6239 93.2624 15.9719 96.9466C16.3198 100.631 17.4689 104.194 19.3385 107.388C21.2082 110.581 23.7534 113.327 26.7957 115.434C29.8381 117.541 33.3042 118.957 36.9513 119.583C40.5984 120.21 44.3384 120.031 47.9094 119.061C51.4804 118.09 54.796 116.351 57.6242 113.965C60.4525 111.578 62.7248 108.602 64.2823 105.245C65.8398 101.889 66.6447 98.2319 66.6406 94.5314V61.3283H78.3594V94.5314C78.3553 98.2319 79.1602 101.889 80.7177 105.245C82.2751 108.602 84.5475 111.578 87.3757 113.965C90.2039 116.351 93.5196 118.09 97.0906 119.061C100.662 120.031 104.402 120.21 108.049 119.583C111.696 118.957 115.162 117.541 118.204 115.434C121.247 113.327 123.792 110.581 125.661 107.388C127.531 104.194 128.68 100.631 129.028 96.9466C129.376 93.2624 128.914 89.5468 127.676 86.0597ZM49.0625 42.9103C49.8996 42.3026 50.8827 41.9274 51.9119 41.8228C52.941 41.7181 53.9795 41.8878 54.9219 42.3146V73.1496C49.7269 69.8159 43.4938 68.4929 37.3926 69.4289L49.0625 42.9103ZM41.25 108.203C38.5459 108.203 35.9026 107.401 33.6543 105.899C31.406 104.397 29.6536 102.262 28.6188 99.7634C27.584 97.2652 27.3133 94.5162 27.8408 91.8642C28.3683 89.2121 29.6705 86.776 31.5825 84.8639C33.4946 82.9519 35.9307 81.6498 38.5827 81.1222C41.2348 80.5947 43.9838 80.8655 46.482 81.9002C48.9802 82.935 51.1154 84.6874 52.6177 86.9357C54.12 89.184 54.9219 91.8274 54.9219 94.5314C54.9219 98.1574 53.4814 101.635 50.9175 104.199C48.3535 106.763 44.876 108.203 41.25 108.203ZM90.0781 42.3146C91.0211 41.8908 92.0591 41.7227 93.0876 41.8273C94.1162 41.9319 95.0991 42.3054 95.9375 42.9103L107.593 69.4289C101.492 68.4929 95.2584 69.8159 90.0635 73.1496L90.0781 42.3146ZM103.75 108.203C101.046 108.203 98.4026 107.401 96.1543 105.899C93.906 104.397 92.1536 102.262 91.1188 99.7634C90.084 97.2652 89.8133 94.5162 90.3408 91.8642C90.8683 89.2121 92.1705 86.776 94.0825 84.8639C95.9945 82.9519 98.4307 81.6498 101.083 81.1222C103.735 80.5947 106.484 80.8655 108.982 81.9002C111.48 82.935 113.615 84.6874 115.118 86.9357C116.62 89.184 117.422 91.8274 117.422 94.5314C117.422 98.1574 115.981 101.635 113.417 104.199C110.853 106.763 107.376 108.203 103.75 108.203Z" fill="#90B49D"/>
</svg>
