<svg width="366" height="366" viewBox="0 0 366 366" fill="none" xmlns="http://www.w3.org/2000/svg">
<path fill-rule="evenodd" clip-rule="evenodd" d="M183 41.9375C105.093 41.9375 41.9375 105.093 41.9375 183C41.9375 260.906 105.093 324.062 183 324.062C260.906 324.062 324.062 260.906 324.062 183C324.062 105.093 260.906 41.9375 183 41.9375ZM19.0625 183C19.0625 92.4598 92.4598 19.0625 183 19.0625C273.541 19.0625 346.937 92.4598 346.937 183C346.937 273.541 273.541 346.937 183 346.937C92.4598 346.937 19.0625 273.541 19.0625 183Z" fill="#FC4F63"/>
<path fill-rule="evenodd" clip-rule="evenodd" d="M183 106.864C189.317 106.864 194.438 111.984 194.438 118.301V247.701C194.438 254.018 189.317 259.139 183 259.139C176.682 259.139 171.562 254.018 171.562 247.701V118.301C171.562 111.984 176.683 106.864 183 106.864Z" fill="#FC4F63"/>
<path fill-rule="evenodd" clip-rule="evenodd" d="M259.25 183C259.25 189.317 254.129 194.438 247.812 194.438H118.413C112.096 194.438 106.975 189.317 106.975 183C106.975 176.682 112.096 171.562 118.413 171.562H247.812C254.129 171.562 259.25 176.683 259.25 183Z" fill="#FC4F63"/>
</svg>
