<svg width="42" height="45" viewBox="0 0 42 45" fill="none" xmlns="http://www.w3.org/2000/svg">
<path d="M19.616 12.4737C22.9919 11.1347 26.4808 9.75121 29.3808 9.18742C29.8019 9.10582 30.2128 9.03906 30.61 8.99455C31.3153 8.14887 32.3082 7.81876 32.9005 7.11031C31.798 7.06951 30.5963 7.17337 29.302 7.42559C26.2206 8.02647 22.6427 9.44335 19.1846 10.8157C13.6448 13.0115 8.40975 15.1999 5.24611 13.7608C4.47232 13.4084 3.56501 12.9522 3.02061 11.2757C1.87363 7.72974 6.22533 3.10817 8.35839 2.38489C14.3878 0.344868 15.48 7.20304 15.48 7.20304C15.48 7.20304 15.8224 7.02871 15.7573 5.74165C15.6306 3.26395 14.244 -0.600959 8.69392 0.556288C5.3728 1.24619 0.209637 6.53169 1.39771 11.5613C1.80857 13.3008 2.66796 14.5582 3.95532 15.2926C7.46134 17.2919 13.364 14.9514 19.616 12.4737Z" fill="url(#paint0_linear_466_336)"/>
<path d="M40.1587 0.827289C39.2137 -0.140793 37.9092 -0.381887 36.0706 0.771652C34.9202 1.49493 33.5883 2.80796 31.9106 4.69962C29.1099 7.85237 6.44747 35.2888 0.726227 42.4511C-0.0681048 43.4451 -0.0852239 44.0423 0.0962399 44.2352C0.27428 44.4281 0.76389 44.3798 1.72599 43.5119C8.31347 37.5588 33.5712 13.3901 36.7622 9.95174C38.1865 8.41616 39.3917 7.02895 39.9053 6.3613C41.6617 4.08761 41.2783 1.97712 40.1587 0.827289ZM31.8079 11.9102C31.3251 12.4331 30.7431 12.7336 30.3322 12.2885C29.9214 11.8434 29.9796 11.0496 30.4623 10.5229L36.5533 3.92441C37.0361 3.40142 37.7688 3.33837 38.1831 3.78346C38.594 4.22856 38.3851 4.78863 37.9023 5.31162L31.8079 11.9102Z" fill="url(#paint1_linear_466_336)"/>
<path opacity="0.6" d="M32.9382 5.11896C34.8384 2.92687 36.1943 1.56933 37.331 1.01667C39.4435 -0.0144691 40.4604 1.17245 40.3611 1.05747C39.4572 0.000367332 38.2109 -0.47811 36.2217 0.686556C35.0405 1.37645 33.736 2.64126 31.9076 4.70354C29.1138 7.86 6.35891 35.3743 0.723258 42.455C-0.0676507 43.4491 -0.12928 44.1019 0.154899 44.2651C5.88984 37.1547 30.1752 8.3051 32.9382 5.11896Z" fill="url(#paint2_linear_466_336)"/>
<path d="M39.0336 3.30873C38.1537 2.71898 37.3525 2.97491 36.5137 3.87623C36.5137 3.87623 36.5787 3.83914 36.678 3.80575C37.1574 3.3792 37.8147 3.34582 38.1982 3.76124C38.6091 4.20634 38.3797 4.78867 37.8969 5.31166L31.8059 11.9102C31.3231 12.4332 30.7616 12.7114 30.3508 12.2663C29.9399 11.8212 29.9981 11.0274 30.4809 10.5007L30.676 10.2893C30.676 10.2893 28.5635 11.7989 29.9296 13.3197C30.6521 14.1208 31.9429 13.6757 32.4599 13.0971L38.9652 5.8569C39.4822 5.28199 39.917 3.90219 39.0336 3.30873Z" fill="url(#paint3_linear_466_336)"/>
<path opacity="0.7" d="M33.1631 10.4823C33.1631 10.4823 34.0156 10.4898 34.3066 10.8829C34.5977 11.2761 34.4402 12.3072 34.5087 12.2331C34.5771 12.1589 36.1761 10.5343 36.6143 10.0595C37.0526 9.58474 36.0494 8.33105 36.0494 8.33105H35.1147L33.1631 10.4823Z" fill="url(#paint4_radial_466_336)"/>
<path opacity="0.7" d="M15.7297 30.341L19.1433 27.0992L14.4116 25.7046L11.6006 29.1355C13.4323 30.4968 15.7297 30.341 15.7297 30.341Z" fill="url(#paint5_radial_466_336)"/>
<path d="M38.0118 9.12843C36.2485 7.1626 33.5026 7.1626 33.5026 7.1626L31.8968 8.90218C34.297 8.77236 35.7144 9.37694 36.9641 10.6826C38.4056 12.1922 38.8301 14.5475 38.6076 16.2092C37.4092 25.2075 26.2235 26.7097 26.1105 26.7245C16.2191 27.9634 10.8436 23.5755 7.94362 19.2321C7.94362 19.2321 7.61151 21.6356 9.73772 23.7238C12.4973 26.4315 16.4074 28.7794 22.8819 28.7794C24.046 28.7794 25.2854 28.7015 26.6002 28.5383C31.0648 27.9782 39.1383 25.2297 40.2784 16.6394C40.5592 14.5623 40.0661 11.417 38.0118 9.12843Z" fill="url(#paint6_linear_466_336)"/>
<defs>
<linearGradient id="paint0_linear_466_336" x1="18.5576" y1="8.06296" x2="29.5991" y2="7.93594" gradientUnits="userSpaceOnUse">
<stop offset="0.5086" stop-color="#F06292"/>
<stop offset="1" stop-color="#C2185B" stop-opacity="0.9665"/>
</linearGradient>
<linearGradient id="paint1_linear_466_336" x1="-5.00564" y1="49.9305" x2="26.6558" y2="20.7042" gradientUnits="userSpaceOnUse">
<stop stop-color="#757575"/>
<stop offset="1" stop-color="#BDBDBD"/>
</linearGradient>
<linearGradient id="paint2_linear_466_336" x1="38.5913" y1="0.0419832" x2="-8.76174" y2="46.714" gradientUnits="userSpaceOnUse">
<stop stop-color="#FCE8B2"/>
<stop offset="1" stop-color="#FCE8B2" stop-opacity="0"/>
</linearGradient>
<linearGradient id="paint3_linear_466_336" x1="33.6537" y1="7.46343" x2="36.818" y2="10.1857" gradientUnits="userSpaceOnUse">
<stop stop-color="#455A64"/>
<stop offset="0.8375" stop-color="#455A64" stop-opacity="0"/>
</linearGradient>
<radialGradient id="paint4_radial_466_336" cx="0" cy="0" r="1" gradientUnits="userSpaceOnUse" gradientTransform="translate(34.0749 11.0098) rotate(69.7511) scale(3.04161 1.93112)">
<stop offset="0.374" stop-color="#212121" stop-opacity="0"/>
<stop offset="1" stop-color="#212121"/>
</radialGradient>
<radialGradient id="paint5_radial_466_336" cx="0" cy="0" r="1" gradientUnits="userSpaceOnUse" gradientTransform="translate(13.8597 29.8094) rotate(10.0722) scale(6.37277 3.07335)">
<stop offset="0.475" stop-color="#212121" stop-opacity="0"/>
<stop offset="1" stop-color="#212121"/>
</radialGradient>
<linearGradient id="paint6_linear_466_336" x1="25.2108" y1="20.0107" x2="21.2071" y2="10.8163" gradientUnits="userSpaceOnUse">
<stop offset="0.5086" stop-color="#F06292"/>
<stop offset="1" stop-color="#C2185B" stop-opacity="0.9665"/>
</linearGradient>
</defs>
</svg>
