<svg width="100" height="100" viewBox="0 0 100 100" fill="none" xmlns="http://www.w3.org/2000/svg">
<path opacity="0.993" fill-rule="evenodd" clip-rule="evenodd" d="M40.1043 7.81243C63.8849 4.73624 80.3781 14.1113 89.5835 35.9374C95.5394 61.3513 86.6852 79.2333 63.021 89.5833C37.6071 95.5392 19.7251 86.685 9.37514 63.0208C3.5669 35.3926 13.8099 16.9899 40.1043 7.81243Z" fill="#76DDDA"/>
<path fill-rule="evenodd" clip-rule="evenodd" d="M41.1456 38.0209C37.6735 36.6321 36.6318 37.6737 38.0206 41.1459C36.3778 43.7676 34.4681 43.7676 32.2915 41.1459C29.261 34.1173 31.5179 30.8186 39.0623 31.2501C43.3317 32.8929 44.0262 35.1499 41.1456 38.0209Z" fill="#51B2AF"/>
<path fill-rule="evenodd" clip-rule="evenodd" d="M60.9374 41.1457C61.8221 36.7242 60.4332 36.0297 56.7708 39.0624C55.2276 33.1311 57.6581 30.527 64.0624 31.2499C68.7434 33.8197 69.4379 37.2919 66.1458 41.6666C64.991 42.3308 63.7757 42.8517 62.4999 43.2291C61.4271 42.879 60.9063 42.1845 60.9374 41.1457Z" fill="#51B2AF"/>
<path fill-rule="evenodd" clip-rule="evenodd" d="M41.146 38.0207C43.5546 41.1238 46.3323 43.9016 49.4793 46.3541C52.2791 44.2488 54.7096 41.8182 56.771 39.0624C60.4334 36.0297 61.8223 36.7242 60.9376 41.1457C57.8346 43.5544 55.0568 46.3321 52.6043 49.4791C54.7096 52.2789 57.1401 54.7094 59.896 56.7707C62.6738 61.6319 61.6321 62.6735 56.771 59.8957C54.7096 57.1399 52.2791 54.7094 49.4793 52.6041C46.3323 55.0566 43.5546 57.8344 41.146 60.9374C36.7244 61.8221 36.0299 60.4331 39.0626 56.7707C41.8185 54.7094 44.249 52.2789 46.3543 49.4791C43.9018 46.3321 41.124 43.5544 38.021 41.1457C36.6321 37.6735 37.6738 36.6319 41.146 38.0207Z" fill="#FCFCFD"/>
<path fill-rule="evenodd" clip-rule="evenodd" d="M39.0626 56.7708C36.0299 60.4332 36.7244 61.8221 41.146 60.9374C43.5533 62.4593 43.5533 64.3691 41.146 66.6666C33.6403 69.5865 30.3418 66.9823 31.2501 58.8541C33.406 55.8253 36.0101 55.1309 39.0626 56.7708Z" fill="#51B2AF"/>
<path fill-rule="evenodd" clip-rule="evenodd" d="M56.7707 59.8958C61.6319 62.6736 62.6736 61.6319 59.8957 56.7708C67.3311 55.7275 69.5879 58.8525 66.6666 66.1458C59.207 69.9298 55.9085 67.8465 56.7707 59.8958Z" fill="#51B2AF"/>
</svg>
