<svg width="90" height="63" viewBox="0 0 90 63" fill="none" xmlns="http://www.w3.org/2000/svg">
<path d="M34.4502 13.5003C37.2853 11.0402 44.4632 5.21241 50.456 3.66732C51.9936 3.2698 53.3812 3.08229 54.6863 3.08229C57.0114 3.08229 58.6915 3.70483 60.3116 4.29736C61.7591 4.82989 63.2592 5.38491 65.0443 5.38491C65.8319 5.38491 66.6119 5.27991 67.4295 5.0699C68.472 4.79988 69.5221 4.10985 70.6321 3.38231C72.2522 2.32475 74.0898 1.11719 76.0849 1.11719C77.72 1.11719 79.3401 1.91223 81.0427 3.55482L86.3004 8.49008C88.9031 11.1077 89.0756 14.6854 88.7606 17.213C87.988 23.4234 83.3153 30.7588 77.9975 34.2239L34.4502 13.5003Z" fill="url(#paint0_radial_776_345)"/>
<path d="M76.0849 2.25012C77.4125 2.25012 78.7776 2.94766 80.2777 4.39523L85.4904 9.29299C87.328 11.1606 88.0481 13.7782 87.6355 17.0859C86.923 22.8012 82.7378 29.5216 77.8925 32.9417L36.4903 13.2307C39.783 10.5006 45.7083 6.04532 50.7261 4.75525C52.1737 4.38773 53.4637 4.20022 54.6788 4.20022C56.8014 4.20022 58.3165 4.75525 59.9141 5.34778C61.4592 5.91782 63.0492 6.50285 65.0368 6.50285C65.9219 6.50285 66.7919 6.39034 67.707 6.15033C68.9296 5.83531 70.0546 5.10027 71.2472 4.32023C72.8148 3.30768 74.4273 2.25012 76.0849 2.25012ZM76.0849 0C72.3347 0 69.4321 3.39018 67.1445 3.98271C66.3869 4.17772 65.6894 4.26023 65.0443 4.26023C61.6167 4.26023 59.3816 1.9501 54.6863 1.9501C53.3962 1.9501 51.9187 2.12261 50.1711 2.57264C42.1681 4.62775 32.4326 13.7782 32.4326 13.7782L78.0725 35.5069C86.7355 30.3091 94.3859 15.0458 87.0655 7.67291L81.8227 2.74515C79.7151 0.720038 77.81 0 76.0849 0Z" fill="#EDA600"/>
<path d="M46.8705 61.1285C45.7079 61.1285 44.5679 60.7085 43.6828 59.9434L7.89092 28.3143C3.7882 24.6841 1.26056 20.1463 1.13306 16.1636C1.04305 13.3285 2.13811 10.7408 4.38823 8.4757L9.60851 3.57794C11.3186 1.92785 12.9387 1.13281 14.5738 1.13281C16.5689 1.13281 18.4065 2.33288 20.0266 3.39793C21.1366 4.12547 22.1867 4.81551 23.2292 5.08552C24.0468 5.29553 24.8268 5.40054 25.6144 5.40054C27.3995 5.40054 28.892 4.84551 30.3396 4.31298C31.9597 3.71295 33.6398 3.09792 35.9649 3.09792C37.2775 3.09792 38.6576 3.29293 40.1951 3.68295C47.823 5.64055 57.3485 14.5285 57.446 14.6185L78.5972 33.4445C80.6973 35.2446 80.9523 38.4023 79.1897 40.5024L79.0397 40.6824C78.1021 41.8 76.7296 42.4375 75.2745 42.4375C74.4945 42.4375 73.7144 42.25 73.0244 41.89C72.8594 41.8075 72.6869 41.7625 72.5069 41.7625C72.2593 41.7625 72.0118 41.845 71.8093 42.01C71.4643 42.2875 71.3068 42.7375 71.4193 43.165C71.8168 44.7401 71.4343 46.4127 70.3992 47.6353L70.2492 47.8153C69.3117 48.9329 67.9391 49.5704 66.4915 49.5704C65.389 49.5704 64.3464 49.2104 63.4764 48.5353C63.2739 48.3778 63.0338 48.2953 62.7863 48.2953C62.5913 48.2953 62.3888 48.3478 62.2163 48.4528C61.8188 48.6853 61.6013 49.1429 61.6763 49.6004C61.9013 51.048 61.4963 52.5105 60.5662 53.6206L60.4162 53.8006C59.4787 54.9182 58.1061 55.5557 56.651 55.5557C55.5934 55.5557 54.5809 55.2182 53.7334 54.5882C53.5383 54.4381 53.2983 54.3706 53.0658 54.3706C52.8783 54.3706 52.6908 54.4156 52.5183 54.5131C52.1358 54.7232 51.9033 55.1432 51.9408 55.5857C52.0458 56.9133 51.6332 58.1958 50.7782 59.2084L50.6282 59.3884C49.6981 60.491 48.3256 61.1285 46.8705 61.1285Z" fill="url(#paint1_radial_776_345)"/>
<path d="M14.5666 2.25012C16.2317 2.25012 17.8443 3.30768 19.4043 4.32773C20.5969 5.10777 21.722 5.84281 22.9445 6.15783C23.8596 6.39784 24.7296 6.51035 25.6147 6.51035C27.5948 6.51035 29.1924 5.91782 30.7299 5.35529C32.3275 4.76275 33.8426 4.20772 35.9652 4.20772C37.1803 4.20772 38.4704 4.38773 39.9179 4.76275C47.2608 6.64535 56.5913 15.3383 56.6813 15.4283C56.6963 15.4433 56.7113 15.4583 56.7263 15.4658L77.8549 34.2693L77.8849 34.2993C79.4975 35.6794 79.7 38.132 78.3275 39.7671L78.1775 39.9471C77.4499 40.8097 76.3999 41.3047 75.2748 41.3047C74.6748 41.3047 74.0747 41.1622 73.5422 40.8847C73.2197 40.7197 72.8597 40.6372 72.5072 40.6372C72.0121 40.6372 71.5171 40.8022 71.1046 41.1247C70.4146 41.6722 70.107 42.5798 70.3245 43.4348C70.6321 44.6574 70.3395 45.9549 69.537 46.9075L69.387 47.0875C68.6595 47.95 67.6094 48.4451 66.4918 48.4451C65.6443 48.4451 64.8418 48.1676 64.1667 47.6425C63.7617 47.3275 63.2742 47.17 62.7866 47.17C62.3966 47.17 61.9991 47.275 61.6466 47.485C60.8515 47.9575 60.424 48.8651 60.5665 49.7726C60.7465 50.8977 60.4315 52.0378 59.704 52.8928L59.554 53.0728C58.8264 53.9354 57.7764 54.4304 56.6513 54.4304C55.8338 54.4304 55.0612 54.1754 54.4012 53.6879C54.0037 53.3953 53.5312 53.2453 53.0586 53.2453C52.6836 53.2453 52.3086 53.3353 51.9711 53.5228C51.1985 53.9504 50.7485 54.7904 50.816 55.668C50.8985 56.6955 50.576 57.6931 49.916 58.4806L49.766 58.6606C49.0384 59.5232 47.9809 60.0182 46.8558 60.0182C45.9558 60.0182 45.0857 59.6957 44.4257 59.1331L8.61877 27.4815C4.74856 24.0538 2.36344 19.8161 2.24343 16.1409C2.16093 13.6057 3.11348 11.3706 5.14608 9.30799L10.3889 4.38773C11.8739 2.94766 13.239 2.25012 14.5666 2.25012ZM14.5666 0C12.8415 0 10.9364 0.720038 8.82878 2.75265L3.586 7.68041C-3.73439 15.0533 1.53089 24.1963 7.14119 29.154L42.9481 60.8057C44.0882 61.7808 45.4832 62.2608 46.8708 62.2608C48.5884 62.2608 50.2985 61.5258 51.4986 60.1007L51.6486 59.9207C52.7286 58.6381 53.1936 57.0405 53.0661 55.488C54.1387 56.283 55.3988 56.673 56.6588 56.673C58.3764 56.673 60.079 55.938 61.2791 54.5129L61.4291 54.3329C62.6216 52.9153 63.0567 51.1152 62.7866 49.4126C63.8892 50.2677 65.1943 50.6877 66.4918 50.6877C68.2094 50.6877 69.912 49.9527 71.1121 48.5351L71.2621 48.3551C72.5822 46.7875 72.9797 44.7399 72.5072 42.8798C73.3772 43.3298 74.3223 43.5473 75.2673 43.5473C76.9849 43.5473 78.6875 42.8198 79.8876 41.3947L80.0376 41.2147C82.2052 38.6346 81.8902 34.7793 79.3325 32.5892L58.2189 13.7857C58.2189 13.7857 48.4759 4.62775 40.4805 2.58014C38.7404 2.13011 37.2628 1.9576 35.9652 1.9576C31.2775 1.9576 29.0424 4.26773 25.6072 4.26773C24.9546 4.26773 24.2646 4.18522 23.5071 3.99021C21.2194 3.39018 18.3168 0 14.5666 0Z" fill="#EDA600"/>
<path d="M19.7496 48.5343C18.167 48.5343 16.6969 47.7468 15.8044 46.4342C14.3118 44.2366 14.8668 41.2139 17.0494 39.7064L25.2849 34.0136C26.0874 33.4585 27.0175 33.166 27.9775 33.166C29.5601 33.166 31.0302 33.9536 31.9227 35.2661C33.4153 37.4637 32.8603 40.4864 30.6777 41.994L22.4422 47.6868C21.6472 48.2418 20.7171 48.5343 19.7496 48.5343Z" fill="url(#paint2_radial_776_345)"/>
<path d="M27.9781 34.2999C29.1857 34.2999 30.3107 34.9 30.9933 35.905C32.1408 37.6001 31.7133 39.9177 30.0407 41.0728L21.8053 46.7656C21.1978 47.1856 20.4852 47.4106 19.7502 47.4106C18.5426 47.4106 17.4176 46.8106 16.735 45.8055C15.5875 44.1104 16.015 41.7928 17.6876 40.6378L25.923 34.945C26.5305 34.5249 27.2431 34.2999 27.9781 34.2999ZM27.9781 32.0498C26.8306 32.0498 25.668 32.3873 24.6404 33.0924L16.405 38.7852C13.7124 40.6453 13.0223 44.3505 14.8674 47.0656C16.015 48.7532 17.8601 49.6532 19.7502 49.6532C20.8977 49.6532 22.0603 49.3157 23.0879 48.6107L31.3233 42.9179C34.0159 41.0578 34.706 37.3526 32.8609 34.6374C31.7133 32.9574 29.8607 32.0498 27.9781 32.0498Z" fill="#EDA600"/>
<path d="M36.7982 61.6683C35.6281 61.6683 34.5031 61.2333 33.6255 60.4457C31.6529 58.6756 31.4729 55.608 33.228 53.6129L38.0208 48.1826C38.9283 47.155 40.2334 46.5625 41.591 46.5625C42.761 46.5625 43.8861 46.9975 44.7636 47.7851C46.7362 49.5552 46.9162 52.6228 45.1611 54.6179L40.3684 60.0482C39.4608 61.0758 38.1633 61.6683 36.7982 61.6683Z" fill="url(#paint3_radial_776_345)"/>
<path d="M41.5983 47.6954C42.4909 47.6954 43.3534 48.0254 44.021 48.6255C45.536 49.9906 45.671 52.3457 44.321 53.8758L39.5282 59.306C38.8382 60.0936 37.8406 60.5436 36.7981 60.5436C35.9055 60.5436 35.043 60.2136 34.3755 59.6136C32.8604 58.2485 32.7254 55.8934 34.0754 54.3633L38.8682 48.933C39.5582 48.1455 40.5558 47.6954 41.5983 47.6954ZM41.5983 45.4453C39.9707 45.4453 38.3507 46.1203 37.1806 47.4404L32.3878 52.8707C30.2202 55.3308 30.4377 59.096 32.8754 61.2786C34.0004 62.2912 35.403 62.7862 36.7981 62.7862C38.4257 62.7862 40.0458 62.1112 41.2158 60.7911L46.0086 55.3608C48.1762 52.9007 47.9587 49.1355 45.521 46.9529C44.396 45.9403 42.9934 45.4453 41.5983 45.4453Z" fill="#EDA600"/>
<path d="M13.7346 40.57C12.0771 40.57 10.5695 39.7224 9.69943 38.3049C8.31936 36.0547 9.00939 33.0921 11.237 31.697L16.2548 28.5618C17.0048 28.0968 17.8674 27.8418 18.7449 27.8418C20.4025 27.8418 21.9101 28.6893 22.7801 30.1069C24.1602 32.357 23.4702 35.3197 21.2425 36.7073L16.2248 39.8424C15.4747 40.3225 14.6122 40.57 13.7346 40.57Z" fill="url(#paint4_radial_776_345)"/>
<path d="M18.7438 28.9738C20.0039 28.9738 21.1589 29.6188 21.819 30.7063C22.8765 32.4314 22.3515 34.7041 20.6414 35.7691L15.6312 38.8968C15.0611 39.2568 14.4086 39.4443 13.7411 39.4443C12.481 39.4443 11.3259 38.7993 10.6659 37.7117C9.60834 35.9866 10.1334 33.714 11.8435 32.6489L16.8612 29.5138C17.4238 29.1613 18.0763 28.9738 18.7438 28.9738ZM18.7438 26.7236C17.6863 26.7236 16.6212 27.0086 15.6612 27.6087L10.6434 30.7438C7.89075 32.4614 7.0357 36.1141 8.74579 38.8893C9.85585 40.6969 11.776 41.6944 13.7411 41.6944C14.7986 41.6944 15.8637 41.4094 16.8237 40.8094L21.8415 37.6742C24.5941 35.9566 25.4492 32.3039 23.7391 29.5288C22.629 27.7137 20.7089 26.7236 18.7438 26.7236Z" fill="#EDA600"/>
<path d="M26.7549 57.2511C25.5173 57.2511 24.3473 56.7636 23.4697 55.8786C21.6546 54.0485 21.6546 51.0633 23.4697 49.2257L32.2752 40.3452C33.1527 39.4602 34.3228 38.9727 35.5604 38.9727C36.7979 38.9727 37.968 39.4602 38.8455 40.3452C40.6681 42.1828 40.6681 45.1605 38.8455 46.9981L30.0401 55.8786C29.1625 56.7636 27.9925 57.2511 26.7549 57.2511Z" fill="url(#paint5_radial_776_345)"/>
<path d="M35.56 40.0968C36.4976 40.0968 37.3826 40.4643 38.0502 41.1394C39.4377 42.5344 39.4377 44.8071 38.0502 46.2096L29.2372 55.0826C28.5697 55.7501 27.6921 56.1252 26.7471 56.1252C25.802 56.1252 24.9245 55.7576 24.2569 55.0826C22.8694 53.6875 22.8694 51.4149 24.2569 50.0123L33.0624 41.1319C33.7374 40.4643 34.615 40.0968 35.56 40.0968ZM35.56 37.8467C34.0825 37.8467 32.6049 38.4167 31.4723 39.5493L22.6668 48.4297C20.4092 50.7024 20.4092 54.3926 22.6668 56.6652C23.7919 57.8052 25.2695 58.3678 26.7546 58.3678C28.2321 58.3678 29.7097 57.7977 30.8423 56.6652L39.6478 47.7847C41.9054 45.5121 41.9054 41.8219 39.6478 39.5493C38.5152 38.4167 37.0376 37.8467 35.56 37.8467Z" fill="#EDA600"/>
<mask id="mask0_776_345" style="mask-type:luminance" maskUnits="userSpaceOnUse" x="29" y="2" width="33" height="20">
<path d="M30.6255 18.4432C28.9379 15.5255 29.9055 12.1203 33.0407 10.1777L50.5016 2.40732C52.4217 1.70978 54.5743 6.28503 54.5743 6.28503L57.627 11.8953C57.627 11.8953 60.3646 15.908 60.6646 16.2756C62.2097 18.1432 59.8696 15.743 56.6669 15.038C50.9966 13.8004 42.4387 20.6333 38.3434 21.3608C34.2482 22.0884 32.3131 21.3608 30.6255 18.4432Z" fill="white"/>
</mask>
<g mask="url(#mask0_776_345)">
<path d="M35.7705 20.4987C33.8054 20.4987 32.7103 19.8161 31.5927 17.881C30.2052 15.4809 31.0002 12.7958 33.5578 11.1682L50.9063 3.45026C51.6188 3.20274 52.7514 3.05273 54.0339 3.05273C57.8141 3.05273 61.4143 4.2153 61.9094 5.58787C61.9319 5.65537 61.9619 5.71538 61.9994 5.77538L67.5272 15.1509C67.5422 15.2109 67.5422 15.2409 67.5422 15.2559C67.5047 15.2559 67.0846 15.5409 65.6071 15.5409C63.4769 15.5409 60.1693 14.9334 56.9891 13.9583C56.3291 13.7558 55.6015 13.6508 54.8365 13.6508C51.2738 13.6508 47.2161 15.8334 43.6384 17.7535C41.4783 18.9161 39.4307 20.0111 38.1331 20.2437C37.2105 20.4162 36.438 20.4987 35.7705 20.4987Z" fill="url(#paint6_linear_776_345)"/>
<path d="M54.0415 4.17785C57.7692 4.17785 60.5743 5.34042 60.8593 5.97045C60.9043 6.10546 60.9643 6.23296 61.0393 6.35297L65.8021 14.4234H65.6221C63.597 14.4234 60.4168 13.8384 57.3341 12.8858C56.5616 12.6533 55.729 12.5333 54.8515 12.5333C51.0038 12.5333 46.8111 14.7834 43.1209 16.771C41.1333 17.8436 39.0707 18.9461 37.9531 19.1486C37.0906 19.2987 36.378 19.3737 35.778 19.3737C34.3829 19.3737 33.5954 19.0736 32.5753 17.3186C31.5103 15.4735 32.1103 13.4633 34.1054 12.1658L51.3338 4.50037C51.9188 4.29786 52.9239 4.17785 54.0415 4.17785ZM54.0415 1.92773C52.6314 1.92773 51.3563 2.08524 50.4938 2.40026L33.0328 10.1707C29.8977 12.1133 28.9301 15.5185 30.6177 18.4361C31.9078 20.6637 33.3404 21.6163 35.7705 21.6163C36.5205 21.6163 37.3681 21.5263 38.3356 21.3538C42.0108 20.7012 49.3612 14.7759 54.844 14.7759C55.4815 14.7759 56.0891 14.8584 56.6666 15.0309C59.6368 15.946 63.1619 16.666 65.6146 16.666C67.7447 16.666 69.0798 16.1185 68.5622 14.6859L62.9669 5.20541C62.1794 2.97779 57.6567 1.92773 54.0415 1.92773Z" fill="#EDA600"/>
</g>
<defs>
<radialGradient id="paint0_radial_776_345" cx="0" cy="0" r="1" gradientUnits="userSpaceOnUse" gradientTransform="translate(61.7309 8.32064) rotate(83.2169) scale(28.7956 22.2377)">
<stop offset="0.5993" stop-color="#FFCA28"/>
<stop offset="1" stop-color="#FFB300"/>
</radialGradient>
<radialGradient id="paint1_radial_776_345" cx="0" cy="0" r="1" gradientUnits="userSpaceOnUse" gradientTransform="translate(41.1301 13.9718) rotate(96.7831) scale(45.5858 35.2042)">
<stop offset="0.5993" stop-color="#FFCA28"/>
<stop offset="1" stop-color="#FFB300"/>
</radialGradient>
<radialGradient id="paint2_radial_776_345" cx="0" cy="0" r="1" gradientUnits="userSpaceOnUse" gradientTransform="translate(28.9082 37.0535) rotate(144.745) scale(12.4514 8.21416)">
<stop offset="0.5993" stop-color="#FFCA28"/>
<stop offset="1" stop-color="#FFB300"/>
</radialGradient>
<radialGradient id="paint3_radial_776_345" cx="0" cy="0" r="1" gradientUnits="userSpaceOnUse" gradientTransform="translate(42.5612 49.954) rotate(130.726) scale(10.7307 8.07726)">
<stop offset="0.5993" stop-color="#FFCA28"/>
<stop offset="1" stop-color="#FFB300"/>
</radialGradient>
<radialGradient id="paint4_radial_776_345" cx="0" cy="0" r="1" gradientUnits="userSpaceOnUse" gradientTransform="translate(19.8991 31.8176) rotate(148.133) scale(9.49454 7.00587)">
<stop offset="0.5993" stop-color="#FFCA28"/>
<stop offset="1" stop-color="#FFB300"/>
</radialGradient>
<radialGradient id="paint5_radial_776_345" cx="0" cy="0" r="1" gradientUnits="userSpaceOnUse" gradientTransform="translate(36.905 42.4271) rotate(45.2391) scale(10.72 12.8654)">
<stop offset="0.5993" stop-color="#FFCA28"/>
<stop offset="1" stop-color="#FFB300"/>
</radialGradient>
<linearGradient id="paint6_linear_776_345" x1="43.1058" y1="8.00934" x2="51.7634" y2="23.7068" gradientUnits="userSpaceOnUse">
<stop offset="0.5993" stop-color="#FFCA28"/>
<stop offset="1" stop-color="#FFB300"/>
</linearGradient>
</defs>
</svg>
