<svg width="1440" height="755" viewBox="0 0 1440 755" fill="none" xmlns="http://www.w3.org/2000/svg">
<path d="M-44 0H1436V590.642C1436 590.642 1341.5 656 1095 656C848.5 656 739.5 516.207 548 491.653C360.605 467.626 213.583 493.886 63.4028 570.013C-35.7778 620.288 -44 656 -44 656V0Z" fill="#FEC0CF" fill-opacity="0.5"/>
<path d="M-5.62609 511.892C237.524 464.802 422.185 401.613 604.659 443.241C756.247 477.822 702.033 552.89 870.708 585.38C1039.38 617.87 1264.92 589.47 1438.44 537.481" stroke="#CF357B" stroke-opacity="0.28" stroke-width="5"/>
<path d="M4.71679 511.118C251.196 440.148 437.296 339.836 625.321 416.832C781.521 480.795 729.127 605.891 902.696 666.928C1076.26 727.964 1305.49 687.994 1480.66 606.236" stroke="#CF357B" stroke-opacity="0.28" stroke-width="5"/>
<path d="M966.146 171.479C973.571 169.281 981.245 167.01 987.623 166.084C988.549 165.95 989.453 165.84 990.327 165.767C991.878 164.379 994.062 163.837 995.365 162.674C992.94 162.607 990.297 162.777 987.45 163.192C980.672 164.178 972.803 166.504 965.197 168.757C953.012 172.362 941.498 175.955 934.539 173.592C932.837 173.014 930.842 172.265 929.644 169.512C927.122 163.691 936.693 156.103 941.385 154.916C954.646 151.567 957.049 162.826 957.049 162.826C957.049 162.826 957.802 162.54 957.659 160.427C957.38 156.359 954.33 150.014 942.123 151.914C934.818 153.046 923.462 161.724 926.075 169.981C926.978 172.837 928.869 174.902 931.7 176.107C939.412 179.39 952.395 175.547 966.146 171.479Z" fill="url(#paint0_linear_991_4)"/>
<path d="M1011.33 152.358C1009.25 150.769 1006.38 150.373 1002.34 152.267C999.807 153.454 996.878 155.61 993.188 158.716C987.028 163.892 937.182 208.936 924.598 220.695C922.851 222.327 922.813 223.308 923.213 223.624C923.604 223.941 924.681 223.862 926.797 222.437C941.286 212.663 996.84 172.984 1003.86 167.339C1006.99 164.817 1009.64 162.54 1010.77 161.444C1014.64 157.711 1013.79 154.246 1011.33 152.358ZM992.962 170.554C991.9 171.412 990.62 171.906 989.716 171.175C988.812 170.444 988.94 169.141 990.002 168.276L1003.4 157.443C1004.46 156.584 1006.07 156.481 1006.98 157.212C1007.89 157.942 1007.43 158.862 1006.37 159.72L992.962 170.554Z" fill="url(#paint1_linear_991_4)"/>
<path opacity="0.6" d="M995.447 159.404C999.627 155.805 1002.61 153.576 1005.11 152.669C1009.76 150.976 1011.99 152.924 1011.77 152.736C1009.79 151 1007.04 150.215 1002.67 152.127C1000.07 153.259 997.202 155.336 993.18 158.722C987.035 163.904 936.986 209.076 924.591 220.701C922.851 222.333 922.716 223.405 923.341 223.673C935.955 211.999 989.37 164.635 995.447 159.404Z" fill="url(#paint2_linear_991_4)"/>
<path d="M1008.86 156.432C1006.92 155.464 1005.16 155.884 1003.32 157.364C1003.32 157.364 1003.46 157.303 1003.68 157.248C1004.73 156.548 1006.18 156.493 1007.02 157.175C1007.93 157.906 1007.42 158.862 1006.36 159.72L992.962 170.554C991.9 171.412 990.665 171.869 989.761 171.138C988.858 170.408 988.986 169.104 990.047 168.24L990.477 167.893C990.477 167.893 985.83 170.371 988.835 172.868C990.424 174.183 993.263 173.452 994.4 172.502L1008.71 160.616C1009.85 159.672 1010.8 157.406 1008.86 156.432Z" fill="url(#paint3_linear_991_4)"/>
<path opacity="0.7" d="M995.944 168.209C995.944 168.209 997.819 168.221 998.459 168.867C999.099 169.512 998.753 171.205 998.904 171.084C999.054 170.962 1002.57 168.295 1003.54 167.515C1004.5 166.736 1002.29 164.677 1002.29 164.677H1000.24L995.944 168.209Z" fill="url(#paint4_radial_991_4)"/>
<path opacity="0.7" d="M957.598 200.813L965.106 195.49L954.698 193.201L948.516 198.834C952.545 201.069 957.598 200.813 957.598 200.813Z" fill="url(#paint5_radial_991_4)"/>
<path d="M1006.61 165.987C1002.73 162.759 996.689 162.759 996.689 162.759L993.158 165.615C998.437 165.402 1001.55 166.395 1004.3 168.538C1007.47 171.017 1008.41 174.883 1007.92 177.612C1005.28 192.385 980.679 194.851 980.431 194.875C958.674 196.909 946.851 189.705 940.473 182.575C940.473 182.575 939.742 186.521 944.419 189.949C950.489 194.394 959.089 198.249 973.329 198.249C975.89 198.249 978.616 198.121 981.508 197.853C991.328 196.934 1009.08 192.421 1011.59 178.318C1012.21 174.908 1011.13 169.744 1006.61 165.987Z" fill="url(#paint6_linear_991_4)"/>
<defs>
<linearGradient id="paint0_linear_991_4" x1="963.818" y1="164.238" x2="988.101" y2="163.864" gradientUnits="userSpaceOnUse">
<stop offset="0.5086" stop-color="#F06292"/>
<stop offset="1" stop-color="#C2185B" stop-opacity="0.9665"/>
</linearGradient>
<linearGradient id="paint1_linear_991_4" x1="911.991" y1="232.975" x2="962.984" y2="169.914" gradientUnits="userSpaceOnUse">
<stop stop-color="#757575"/>
<stop offset="1" stop-color="#BDBDBD"/>
</linearGradient>
<linearGradient id="paint2_linear_991_4" x1="1007.88" y1="151.068" x2="933.04" y2="249.891" gradientUnits="userSpaceOnUse">
<stop stop-color="#FCE8B2"/>
<stop offset="1" stop-color="#FCE8B2" stop-opacity="0"/>
</linearGradient>
<linearGradient id="paint3_linear_991_4" x1="997.026" y1="163.253" x2="1002.23" y2="169.248" gradientUnits="userSpaceOnUse">
<stop stop-color="#455A64"/>
<stop offset="0.8375" stop-color="#455A64" stop-opacity="0"/>
</linearGradient>
<radialGradient id="paint4_radial_991_4" cx="0" cy="0" r="1" gradientUnits="userSpaceOnUse" gradientTransform="translate(997.95 169.075) rotate(63.7009) scale(5.22594 4.05866)">
<stop offset="0.374" stop-color="#212121" stop-opacity="0"/>
<stop offset="1" stop-color="#212121"/>
</radialGradient>
<radialGradient id="paint5_radial_991_4" cx="0" cy="0" r="1" gradientUnits="userSpaceOnUse" gradientTransform="translate(953.484 199.94) rotate(7.5526) scale(13.9216 5.08028)">
<stop offset="0.475" stop-color="#212121" stop-opacity="0"/>
<stop offset="1" stop-color="#212121"/>
</radialGradient>
<linearGradient id="paint6_linear_991_4" x1="978.452" y1="183.853" x2="973.173" y2="167.611" gradientUnits="userSpaceOnUse">
<stop offset="0.5086" stop-color="#F06292"/>
<stop offset="1" stop-color="#C2185B" stop-opacity="0.9665"/>
</linearGradient>
</defs>
</svg>
