<svg width="70" height="90" viewBox="0 0 70 90" fill="none" xmlns="http://www.w3.org/2000/svg">
<path opacity="0.2" d="M60.8981 15.2492C60.8234 14.8754 60.7486 14.4269 60.5991 14.0532C60.4496 13.5299 60.3001 13.0066 60.0759 12.4834C59.8516 11.8854 59.6273 11.3621 59.3283 10.7641C59.0293 10.2409 58.7303 9.64286 58.4313 9.1196C57.9081 8.37209 57.3848 7.62458 56.8616 6.87708C56.4878 6.42857 56.0393 5.98007 55.6656 5.53156C55.217 5.08306 54.7685 4.7093 54.32 4.33555C53.8715 3.96179 53.3483 3.58804 52.8998 3.21429C52.6755 3.06478 52.526 2.99003 52.3018 2.84053C51.7038 2.46678 51.1058 2.16777 50.5077 1.86877C49.6107 1.42027 48.5642 1.04651 47.5925 0.747508C47.3682 0.672758 47.144 0.598007 46.9945 0.598007C45.4994 0.224252 43.9297 0 42.2852 0H27.335C26.5875 0 25.9147 3.34162e-08 25.242 0.149502C25.0177 0.149502 24.7935 0.224252 24.5692 0.224252C24.2702 0.299003 23.9712 0.299003 23.6722 0.373754C23.5227 0.373754 23.4479 0.448505 23.2984 0.448505C22.7752 0.598007 22.1772 0.672758 21.6539 0.89701C15.6739 2.76578 10.8898 7.54983 9.02103 13.5299C8.87153 14.0532 8.72203 14.5764 8.57253 15.1744C8.57253 15.3239 8.49778 15.3987 8.49778 15.5482C8.42303 15.8472 8.34828 16.1462 8.34828 16.4452C8.34828 16.6694 8.27353 16.8937 8.27353 17.1179C8.19877 17.7907 8.12402 18.5382 8.12402 19.211V38.9452H10.3665V19.2857C10.3665 9.94186 17.9911 2.31728 27.335 2.31728H42.2852C51.5543 2.31728 59.1041 9.86711 59.1041 19.1362V39.0199H61.3466V19.0615C61.2719 17.7907 61.1971 16.5199 60.8981 15.2492ZM42.0609 9.2691H27.1855C21.7287 9.2691 17.3184 13.6794 17.3184 19.1362V38.9452H19.5609V19.1362C19.5609 18.912 19.5609 18.613 19.6357 18.3887C19.6357 18.1645 19.7104 17.9402 19.7104 17.7159C19.7104 17.6412 19.7104 17.6412 19.7104 17.5664C19.7852 17.1927 19.8599 16.8937 20.0094 16.5947C20.0094 16.4452 20.0842 16.3704 20.1589 16.2209C20.7569 14.7259 21.8782 13.3804 23.2984 12.5581C23.5227 12.4086 23.7469 12.3339 23.8965 12.1844C24.1207 12.1096 24.345 11.9601 24.5692 11.8854C24.7935 11.8106 25.0177 11.7359 25.3167 11.6611C25.9147 11.5116 26.5875 11.4369 27.1855 11.4369H42.0609C46.3217 11.4369 49.7602 14.8754 49.7602 19.1362V38.8704H52.0028V19.2857C52.0028 13.7542 47.5925 9.2691 42.0609 9.2691Z" fill="#424242"/>
<path opacity="0.2" d="M63.9627 36.8521C65.7568 36.8521 67.177 38.2724 67.177 40.0664V84.4684C67.177 86.2624 65.7568 87.6827 63.9627 87.6827H5.50759C3.71357 87.6827 2.29331 86.2624 2.29331 84.4684V40.1412C2.29331 38.3472 3.71357 36.9269 5.50759 36.9269L63.9627 36.8521ZM63.9627 34.6096H5.50759C2.51756 34.6096 0.0507812 37.0764 0.0507812 40.0664V84.4684C0.0507812 87.4585 2.51756 89.9252 5.50759 89.9252H63.9627C66.9528 89.9252 69.4196 87.4585 69.4196 84.4684V40.1412C69.4196 37.0764 66.9528 34.6096 63.9627 34.6096Z" fill="#424242"/>
</svg>
