<svg width="11" height="23" viewBox="0 0 11 23" fill="none" xmlns="http://www.w3.org/2000/svg">
<path d="M3.54414 15.79C3.54414 14.91 3.60414 14.18 3.72414 13.6C3.86414 13 4.10414 12.46 4.44414 11.98C4.78414 11.48 5.26414 10.98 5.88414 10.48C6.58414 9.88 7.15414 9.35 7.59414 8.89C8.05414 8.43 8.39414 7.94 8.61414 7.42C8.83414 6.9 8.94414 6.25 8.94414 5.47C8.94414 4.25 8.58414 3.34 7.86414 2.74C7.16414 2.12 6.23414 1.81 5.07414 1.81C4.25414 1.81 3.50414 1.91 2.82414 2.11C2.14414 2.31 1.47414 2.59 0.814141 2.95L0.184141 1.51C0.984141 1.11 1.76414 0.809999 2.52414 0.609998C3.30414 0.389999 4.17414 0.279999 5.13414 0.279999C6.83414 0.279999 8.16414 0.729999 9.12414 1.63C10.1041 2.51 10.5941 3.78 10.5941 5.44C10.5941 6.4 10.4441 7.22 10.1441 7.9C9.84414 8.56 9.43414 9.16 8.91414 9.7C8.39414 10.24 7.78414 10.8 7.08414 11.38C6.52414 11.84 6.08414 12.28 5.76414 12.7C5.46414 13.1 5.24414 13.56 5.10414 14.08C4.98414 14.58 4.92414 15.2 4.92414 15.94V16.39H3.54414V15.79ZM3.03414 20.86C3.03414 20.36 3.14414 19.99 3.36414 19.75C3.58414 19.51 3.89414 19.39 4.29414 19.39C4.69414 19.39 5.00414 19.51 5.22414 19.75C5.46414 19.99 5.58414 20.36 5.58414 20.86C5.58414 21.34 5.46414 21.71 5.22414 21.97C5.00414 22.21 4.69414 22.33 4.29414 22.33C3.89414 22.33 3.58414 22.21 3.36414 21.97C3.14414 21.71 3.03414 21.34 3.03414 20.86Z" fill="#FF0000"/>
</svg>
